<?xml version="1.0" encoding="iso-8859-1"?>
<!-- Generator: Adobe Illustrator 18.0.0, SVG Export Plug-In . SVG Version: 6.00 Build 0)  -->
<!DOCTYPE svg PUBLIC "-//W3C//DTD SVG 1.1//EN" "http://www.w3.org/Graphics/SVG/1.1/DTD/svg11.dtd">
<svg xmlns="http://www.w3.org/2000/svg" xmlns:xlink="http://www.w3.org/1999/xlink" version="1.1" id="Capa_1" x="0px" y="0px" viewBox="0 0 376.705 376.705" style="enable-background:new 0 0 376.705 376.705;" xml:space="preserve" width="512px" height="512px">
<path d="M346.219,111.088c-19.66-19.66-45.799-30.487-73.603-30.487h-66.422v-9.245c0-3.59-2.91-6.5-6.5-6.5H177.01  c-3.59,0-6.5,2.91-6.5,6.5v9.245h-65.193c-57.531,0-105.596,47.069-105.315,104.6c0.132,27.113,10.616,52.714,29.553,72.14  c17.698,18.146,40.96,29.059,66.01,31.086c1.175,5.543,3.925,10.641,8.032,14.755c5.601,5.59,13.036,8.669,20.938,8.669h127.637  c14.206,0,26.108-10.056,28.963-23.423c25.058-2.026,48.317-12.939,66.008-31.087c19.064-19.546,29.563-45.351,29.563-72.659  C376.705,156.873,365.878,130.737,346.219,111.088z M206.194,128.608v-9.294h65.29c35.959,0,65.895,28.646,66.302,64.602  c0.201,17.747-6.616,34.462-19.142,46.989c-12.352,12.343-28.766,19.141-46.219,19.141H105.222  c-35.952,0-65.885-28.634-66.303-64.583c-0.206-17.747,6.611-34.468,19.145-47.002c12.339-12.347,28.752-19.146,46.216-19.146h66.23  v9.294c0,3.59,2.91,6.5,6.5,6.5h22.684C203.284,135.108,206.194,132.198,206.194,128.608z M183.51,77.855h9.685v44.253h-9.685  V77.855z M337.834,248.265c-16.645,17.074-38.92,26.83-62.724,27.472l0,0c-3.52,0.095-6.325,2.976-6.325,6.498l0,0  c0,9.176-7.439,16.615-16.615,16.615H124.534c-4.434,0-8.607-1.729-11.745-4.861c-3.141-3.146-4.87-7.32-4.87-11.754l0,0  c0-3.522-2.804-6.403-6.325-6.498l0,0c-23.8-0.642-46.079-10.398-62.731-27.472c-16.843-17.277-26.043-40.136-25.86-64.293  c0.382-50.219,42.037-90.371,92.257-90.371h65.25v12.714h-66.23c-20.938,0-40.617,8.153-55.41,22.956  c-14.719,14.72-22.863,34.26-22.954,55.055c-0.191,43.297,36.1,78.721,79.398,78.721h167.113c20.924,0,40.602-8.148,55.409-22.946  c14.716-14.716,22.859-34.252,22.955-55.047c0.2-43.307-36.09-78.738-79.398-78.738h-65.198V93.601h66.422  c24.331,0,47.205,9.475,64.411,26.681c17.203,17.194,26.678,40.065,26.678,64.399C363.705,208.578,354.518,231.159,337.834,248.265z  " fill="#E12826"/>
<g>
</g>
<g>
</g>
<g>
</g>
<g>
</g>
<g>
</g>
<g>
</g>
<g>
</g>
<g>
</g>
<g>
</g>
<g>
</g>
<g>
</g>
<g>
</g>
<g>
</g>
<g>
</g>
<g>
</g>
</svg>
