<?xml version="1.0" encoding="iso-8859-1"?>
<!-- Generator: Adobe Illustrator 19.1.0, SVG Export Plug-In . SVG Version: 6.00 Build 0)  -->
<svg xmlns="http://www.w3.org/2000/svg" xmlns:xlink="http://www.w3.org/1999/xlink" version="1.1" id="Capa_1" x="0px" y="0px" viewBox="0 0 289.282 289.282" style="enable-background:new 0 0 289.282 289.282;" xml:space="preserve" width="512px" height="512px">
<g>
	<path d="M283.757,88.202h-54.326c-3.622,0-6.036,2.414-6.036,6.036v29.577c-1.811,0.604-3.018,1.207-4.829,1.811   c-13.28-9.658-36.217-20.523-73.038-24.749c-1.811,0-3.622,0.604-4.829,1.207c-1.207,1.207-1.811,3.018-1.811,4.225v21.127   c-9.658,0-28.37,0.604-49.497,3.622c-6.64-6.036-15.694-9.054-25.352-9.054c-17.505,0-32.596,11.469-37.425,27.767   c-10.865,5.433-19.316,12.676-25.352,19.919c-1.207,1.811-1.811,4.225-0.604,6.64c1.207,1.811,3.018,3.622,5.433,3.622h23.541   c6.64,12.676,19.919,21.127,34.407,21.127c15.091,0,28.37-8.451,34.407-21.127h101.409c6.64,12.676,19.92,21.127,34.406,21.127   s28.37-8.451,34.406-21.127h14.487c3.622,0,6.036-2.414,6.036-6.036V94.238C289.793,90.617,287.379,88.202,283.757,88.202z    M25.407,167.88h-4.829c1.207-1.207,3.018-1.811,4.225-3.018c0,0,0,0,0,0.604c0,0.604,0,0.604,0,1.207   C25.407,166.673,25.407,167.277,25.407,167.88z M64.038,188.403c-12.072,0-22.334-7.847-25.956-19.316   c0-1.207-0.604-1.811-0.604-3.018c-0.604-1.811-0.604-3.622-0.604-5.433s0-3.018,0.604-4.829c0-0.604,0-0.604,0-1.207   c3.018-12.072,13.28-21.127,26.559-21.127c7.244,0,14.487,3.018,19.316,7.847c1.207,1.207,2.414,2.414,3.018,3.622   c0.604,0.604,1.207,1.811,1.811,3.018c0.604,0.604,0.604,1.207,1.207,2.414c0.604,1.207,0.604,2.414,1.207,3.622   c0,0.604,0.604,1.207,0.604,1.207c0.604,1.811,0.604,3.622,0.604,5.433l0,0c0,1.811,0,3.622-0.604,5.433   c0,1.207-0.604,1.811-0.604,2.414C86.372,180.556,76.111,188.403,64.038,188.403z M196.232,167.88H102.67v-0.604   c0-1.811,0.604-3.622,0.604-5.433s0-3.018,0-4.829c0-0.604,0-0.604,0-1.207c0-1.207-0.604-1.811-0.604-3.018   c0-0.604,0-1.207-0.604-1.811c0-1.207-0.604-1.811-0.604-2.414s-0.604-1.207-0.604-1.811c-0.604-1.207-1.207-2.414-1.811-3.622   c0,0,0,0,0-0.604c25.352-3.018,45.875-2.414,46.479-2.414c1.811,0,3.018-0.604,4.225-1.811c1.207-1.207,1.811-2.414,1.811-4.225   v-19.919c27.163,3.622,45.272,12.072,56.74,19.316l0,0c-0.604,0.604-1.811,1.811-2.414,2.414c0,0,0,0-0.604,0.604   c-0.604,1.207-1.811,1.811-2.414,3.018l0,0c-4.225,6.64-7.243,13.883-7.243,22.334C195.628,163.051,195.628,165.466,196.232,167.88   C196.232,167.277,196.232,167.277,196.232,167.88z M234.863,188.403c-12.072,0-22.334-7.847-25.956-18.712   c-0.604-1.207-0.604-2.414-1.207-3.018c0-1.207-0.604-2.414-0.604-4.225c0-0.604,0-0.604,0-1.207l0,0c0-1.811,0-3.018,0.604-4.829   c0-0.604,0-1.207,0-1.207c0.604-1.207,0.604-2.414,1.207-4.225c0-0.604,0.604-0.604,0.604-1.207   c0.604-1.207,1.207-1.811,1.811-3.018c0.604-0.604,0.604-1.207,1.207-1.207c0.604-1.207,1.811-1.811,2.414-3.018   c0.604-0.604,0.604-0.604,1.207-1.207c0.604-0.604,1.811-1.811,3.018-2.414c0.604-0.604,0.604-0.604,1.207-1.207   c4.225-2.414,9.054-4.225,14.487-4.225l0,0c15.091,0,27.163,12.072,27.163,27.163c0,1.811,0,3.622-0.604,5.433   c0,1.207-0.604,1.811-0.604,2.414C257.198,180.556,246.936,188.403,234.863,188.403z M277.721,167.88h-4.225v-0.604   c0-1.811,0.604-3.622,0.604-5.433l0,0l0,0l0,0v-0.604c0-1.207,0-2.414,0-3.622c0-0.604,0-1.207,0-1.811   c0-0.604,0-1.207-0.604-2.414c0-0.604,0-1.207-0.604-1.811c0-0.604-0.604-1.207-0.604-1.811c0-0.604-0.604-1.207-0.604-1.811   c0-0.604-0.604-1.207-0.604-1.811c0-0.604-0.604-1.207-0.604-1.811c0-0.604-0.604-1.207-0.604-1.811   c0-0.604-0.604-1.207-1.207-1.811c-0.604-0.604-0.604-1.207-1.207-1.811c-0.604-0.604-0.604-1.207-1.207-1.207   c-0.604-0.604-0.604-1.207-1.207-1.811c-0.604-0.604-0.604-0.604-1.207-1.207c-0.604-0.604-0.604-1.207-1.207-1.207   c-0.604-0.604-0.604-0.604-1.207-1.207c-0.604-0.604-1.207-0.604-1.207-1.207c-0.604-0.604-1.207-0.604-1.207-1.207   c-0.604-0.604-1.207-0.604-1.811-1.207c-0.604-0.604-1.207-0.604-1.811-1.207c-0.604-0.604-1.207-0.604-1.811-1.207   c-0.604-0.604-1.207-0.604-1.811-0.604c-0.604,0-1.207-0.604-1.811-0.604c-0.604,0-1.207-0.604-1.811-0.604   c-0.604,0-1.207-0.604-1.811-0.604c-0.604,0-1.207-0.604-1.811-0.604c-0.604,0-1.207-0.604-1.811-0.604s-1.207,0-1.811-0.604   c-0.604,0-1.207,0-1.811,0c-0.604,0-1.207,0-1.811,0c-0.604,0-1.207,0-1.207,0V99.671h42.254v68.21H277.721z" fill="#E12826"/>
</g>
<g>
</g>
<g>
</g>
<g>
</g>
<g>
</g>
<g>
</g>
<g>
</g>
<g>
</g>
<g>
</g>
<g>
</g>
<g>
</g>
<g>
</g>
<g>
</g>
<g>
</g>
<g>
</g>
<g>
</g>
</svg>
