<?xml version="1.0" encoding="iso-8859-1"?>
<!-- Generator: Adobe Illustrator 19.0.0, SVG Export Plug-In . SVG Version: 6.00 Build 0)  -->
<svg xmlns="http://www.w3.org/2000/svg" xmlns:xlink="http://www.w3.org/1999/xlink" version="1.1" id="Capa_1" x="0px" y="0px" viewBox="0 0 58.828 58.828" style="enable-background:new 0 0 58.828 58.828;" xml:space="preserve" width="512px" height="512px">
<g>
	<g>
		<path d="M17.082,27.413c0,2.206,1.794,4,4,4s4-1.794,4-4s-1.794-4-4-4S17.082,25.207,17.082,27.413z M23.082,27.413    c0,1.103-0.897,2-2,2s-2-0.897-2-2s0.897-2,2-2S23.082,26.31,23.082,27.413z" fill="#FFFFFF"/>
		<path d="M19.399,45.583c-5.366,0.446-10.086-3.553-10.532-8.912c-0.045-0.551-0.518-0.979-1.079-0.913    c-0.551,0.045-0.959,0.528-0.913,1.079c0.51,6.129,5.662,10.779,11.706,10.779c0.326,0,0.654-0.013,0.984-0.041    c0.551-0.045,0.959-0.528,0.913-1.079C20.434,45.946,19.964,45.525,19.399,45.583z" fill="#FFFFFF"/>
		<path d="M58.633,33.367c0.363-1.113,0.214-2.318-0.41-3.308l-9.666-15.304c-1.067-1.691-3.287-2.277-5.068-1.328l-0.464,0.259    c-0.045-0.036-0.094-0.081-0.137-0.111c-0.213-0.217-0.802-0.795-1.735-1.546c-8.396-6.758-20.355-7.475-29.759-1.78    c-5.466,3.31-8.898,7.566-10.185,12.585c-0.197,0.591-4.71,14.59,5.073,25.407c0.472,0.578,2.992,2.82,14.154,3.805    c2.717,0.24,5.476,0.359,8.268,0.359c5.421,0,10.965-0.451,16.564-1.352c4.663-0.75,8.362-1.596,10.995-2.515    c0.288-0.101,0.515-0.327,0.615-0.615c0.1-0.285,2.405-7.034,0.133-12.087c-0.018-0.038-0.037-0.075-0.059-0.11l-0.153-0.25    C57.659,35.053,58.326,34.309,58.633,33.367z M55.132,46.81c-2.489,0.819-5.911,1.582-10.182,2.269    c-8.32,1.338-16.509,1.666-24.338,0.975c-10.668-0.94-12.751-3.048-12.758-3.048v0.001c-0.021-0.029-0.044-0.058-0.067-0.084    C-1.228,36.985,3.061,23.6,3.126,23.4c1.171-4.562,4.302-8.411,9.303-11.439c8.688-5.259,19.726-4.606,27.47,1.628    c0.586,0.472,1.02,0.866,1.291,1.123l-8.598,4.799c-0.421,0.234-0.87,0.407-1.334,0.512l-0.274,0.063    c-1.55,0.359-4.146,0.957-8.959-0.033c-2.6-0.534-5.199,0.473-6.791,2.627c-0.199,0.27-0.377,0.549-0.532,0.836    c-1.05,1.94-1.086,4.228-0.085,6.217c0.036,0.072,0.061,0.146,0.1,0.217v0.001v0.001c0.114,0.208,0.234,0.416,0.365,0.633    c0.614,1.013,1.346,1.951,2.165,2.812c2.259,2.377,5.22,4.126,8.499,4.947c0.205,0.051,0.441,0.117,0.695,0.188    c0.062,0.017,0.118,0.033,0.183,0.051c1.908,0.536,5.065,1.423,9.747,1.423c4.614,0,10.709-0.862,18.549-3.77l0.292,0.479    C56.813,40.348,55.575,45.3,55.132,46.81z M35.858,37.979c-4.148-0.062-6.979-0.843-8.7-1.326    c-0.253-0.07-0.475-0.132-0.685-0.187c-0.081-0.022-0.166-0.045-0.241-0.064c-2.292-0.574-4.398-1.665-6.17-3.123    c-1.291-1.063-2.41-2.314-3.269-3.732c-0.115-0.19-0.223-0.375-0.323-0.56c-0.336-0.613-0.526-1.273-0.572-1.938    c-0.078-1.108,0.242-2.232,0.945-3.184c0.13-0.176,0.271-0.337,0.419-0.491c0.047-0.049,0.097-0.092,0.145-0.138    c0.106-0.101,0.214-0.199,0.326-0.289c0.059-0.047,0.119-0.091,0.179-0.135c0.112-0.081,0.227-0.157,0.344-0.227    c0.062-0.037,0.123-0.075,0.186-0.109c0.134-0.073,0.273-0.136,0.413-0.195c0.049-0.021,0.097-0.045,0.146-0.064    c0.192-0.073,0.388-0.134,0.588-0.181c0.036-0.008,0.073-0.012,0.109-0.019c0.164-0.035,0.331-0.062,0.499-0.078    c0.069-0.007,0.139-0.009,0.209-0.012c0.118-0.006,0.236-0.007,0.356-0.004c0.285,0.006,0.573,0.029,0.861,0.088    c1.313,0.27,2.483,0.429,3.526,0.51C25.501,29.555,29.748,35.395,35.858,37.979z M56.732,32.746    c-0.155,0.475-0.481,0.832-0.918,1.005c-0.508,0.201-0.987,0.368-1.48,0.551c-0.678,0.252-1.351,0.499-2.001,0.721    c-0.271,0.092-0.532,0.173-0.799,0.26c-0.655,0.214-1.306,0.423-1.933,0.608c-0.232,0.068-0.453,0.126-0.681,0.19    c-0.642,0.181-1.278,0.356-1.891,0.507c-0.186,0.046-0.363,0.083-0.546,0.126c-0.635,0.15-1.263,0.292-1.865,0.412    c-0.137,0.027-0.267,0.048-0.403,0.074c-0.417,0.079-0.82,0.146-1.222,0.212c-8.572-0.006-15.337-6.445-15.843-14.835    c1.981-0.029,3.368-0.334,4.283-0.544l0.265-0.061c0.652-0.147,1.281-0.389,1.869-0.717l9.797-5.468    c0.001,0,0.001-0.001,0.002-0.001l1.081-0.603c0.85-0.452,1.909-0.168,2.42,0.641l9.666,15.304    C56.832,31.604,56.907,32.209,56.732,32.746z" fill="#FFFFFF"/>
	</g>
</g>
<g>
</g>
<g>
</g>
<g>
</g>
<g>
</g>
<g>
</g>
<g>
</g>
<g>
</g>
<g>
</g>
<g>
</g>
<g>
</g>
<g>
</g>
<g>
</g>
<g>
</g>
<g>
</g>
<g>
</g>
</svg>
